# xmcd CD database file
# Copyright (C) 2002 Ti Kan
# 
# Track frame offsets:
#     150
#     20052
#     34591
#     47362
#     60514
#     76102
#     93045
#     108233
#     126649
#     150533
#     166600
#     183214
# 
# Disc length: 2635 seconds
# 
# Revision: 3
# Processed by: cddbd v1.4PL0 Copyright (c) Steve Scherf et al.
# Submitted via: DiscPlay 4.0.4
# 
DISCID=800a490c
DTITLE=Tracy Nelson - Ebony And Irony
DYEAR=1900
DGENRE=
TTITLE0=You Will Find Me There (Will Jennings, M. Berg)
TTITLE1=Strongest Weakness (Bekka Bramlet)
TTITLE2=Got A New Truck (Marcia Ball, Tracy Nelson)
TTITLE3=If You Knew How Much (David Egan)
TTITLE4=Last Chance (Alice Newman)
TTITLE5=How Much Truth (Mose Allison)
TTITLE6=Still Not Out Of The Woods (G. Nicholson)
TTITLE7=I Must Be Crazy (Tracy Nelson)
TTITLE8=Even Now (David Egan)
TTITLE9=Quicksand (Terry Hanck)
TTITLE10=Strongest Weakness (Alt. Take) (Bramlet)
TTITLE11=Silent Trail (Roy Rogers)
EXTD=
EXTT0=
EXTT1=
EXTT2=
EXTT3=
EXTT4=
EXTT5=
EXTT6=
EXTT7=
EXTT8=
EXTT9=
EXTT10=
EXTT11=
PLAYORDER=
